<?xml version="1.0" encoding="UTF-8"?><svg id="Layer_1" xmlns="http://www.w3.org/2000/svg" width="500" height="500" viewBox="0 0 500 500"><path d="M500,0v500H0V0h500ZM57.5,87.5v65c0,.059.498-.091.75,0,.216.078.342.5.5.5.249,0,.38-.978,1,0,84.703,3.137,171.966-7.208,255,6.495,24.944,7.967,45.337,26.692,54.249,51.755,13.04,36.739,10.411,81.323-13.999,112.5-35.904,43.415-98.104,31.381-148.501,33.75v65c38.338-.226,77.664,1.976,115.25-6.5,116.827-25.494,153.69-175.924,86.749-266.251-44.167-61.03-120.622-62.834-188.25-62.245,0-.004-162.749-.004-162.749-.004ZM173,422.5c-.743-.756,1.427-251.454-.748-251.498-.002-.002-64.002-.002-64.002-.002-2.34.003.11,250.772-.75,251.5h65.5Z" fill="#fff"/><path d="M57.5,87.5s162.75,0,162.75,0c67.618-.566,144.095,1.197,188.249,62.253,66.931,90.319,30.086,240.763-86.751,266.245-37.587,8.475-76.908,6.275-115.248,6.501v-65c50.397-2.371,112.599,9.668,148.5-33.749,24.415-31.173,27.036-75.765,14.001-112.501-8.915-25.06-29.307-43.792-54.251-51.75-83.039-13.71-170.29-3.361-255-6.5-.62-.978-.751,0-1,0-.158,0-.284-.422-.5-.5-.252-.091-.75.059-.75,0v-65Z"/><path d="M173,422.5h-65.5c.743-.756-1.427-251.454.748-251.498.002-.002,64.002-.002,64.002-.002,2.34.003-.11,250.772.75,251.5Z"/></svg>